<?xml version="1.0" encoding="UTF-8" standalone="no"?>
<!DOCTYPE svg PUBLIC "-//W3C//DTD SVG 1.1//EN" "http://www.w3.org/Graphics/SVG/1.1/DTD/svg11.dtd">
<svg width="100%" height="100%" viewBox="0 0 75 28" version="1.1" xmlns="http://www.w3.org/2000/svg" xmlns:xlink="http://www.w3.org/1999/xlink" xml:space="preserve" xmlns:serif="http://www.serif.com/" style="fill-rule:evenodd;clip-rule:evenodd;stroke-linejoin:round;stroke-miterlimit:2;">
    <g transform="matrix(0.717949,0,0,0.717949,0,0)">
        <path d="M62.12,26.522C62.297,26.677 62.438,26.872 62.53,27.09C62.623,27.308 62.665,27.545 62.654,27.782C62.654,29.142 61.876,29.822 60.32,29.822L46.949,29.822C46.455,29.852 45.969,29.683 45.599,29.352C45.228,29.02 45.003,28.554 44.973,28.054C44.969,27.99 44.968,27.926 44.971,27.862C44.972,27.517 45.042,27.176 45.178,26.859C45.315,26.543 45.513,26.258 45.762,26.022L56.799,14.023L48.254,14.023C47.696,14.063 47.142,13.9 46.692,13.563C46.512,13.401 46.37,13.2 46.278,12.975C46.185,12.75 46.144,12.506 46.158,12.263C46.158,10.929 46.936,10.263 48.492,10.263L61.269,10.263C61.537,10.25 61.804,10.295 62.053,10.395C62.302,10.495 62.527,10.648 62.713,10.843C63.063,11.214 63.255,11.71 63.247,12.223C63.231,12.929 62.948,13.602 62.456,14.102L51.458,26.062L60.557,26.062C61.116,26.023 61.67,26.186 62.12,26.522" style="fill:white;"/>
    </g>
    <g transform="matrix(0.717949,0,0,0.717949,0,0)">
        <path d="M81.939,20.482C81.785,20.635 81.603,20.755 81.402,20.834C81.201,20.913 80.987,20.95 80.771,20.942L69.023,20.942C68.992,22.418 69.523,23.85 70.506,24.942C71.027,25.417 71.636,25.782 72.299,26.016C72.961,26.25 73.663,26.347 74.363,26.302C75.212,26.312 76.059,26.198 76.875,25.962C77.66,25.72 78.412,25.377 79.11,24.942C79.412,24.767 79.752,24.671 80.099,24.662C80.301,24.653 80.502,24.694 80.684,24.781C80.867,24.868 81.026,24.999 81.147,25.162C81.404,25.515 81.536,25.944 81.524,26.382C81.525,26.759 81.436,27.131 81.264,27.466C81.092,27.8 80.841,28.087 80.534,28.302C79.675,28.906 78.718,29.352 77.706,29.622C76.517,29.97 75.285,30.145 74.047,30.141C72.25,30.184 70.47,29.779 68.864,28.962C67.425,28.212 66.235,27.05 65.443,25.622C64.612,24.077 64.196,22.34 64.236,20.582C64.203,18.65 64.623,16.738 65.462,15.003C66.228,13.42 67.421,12.089 68.904,11.163C70.429,10.229 72.185,9.751 73.968,9.782C75.119,9.711 76.271,9.892 77.347,10.313C78.422,10.734 79.395,11.386 80.198,12.223C81.773,14.179 82.557,16.665 82.394,19.182C82.408,19.419 82.375,19.656 82.297,19.879C82.219,20.102 82.097,20.308 81.938,20.482L81.939,20.482ZM69.181,18.262L78.2,18.262C78.317,16.943 77.951,15.626 77.172,14.562C76.796,14.137 76.331,13.803 75.811,13.585C75.29,13.367 74.728,13.27 74.165,13.302C71.37,13.302 69.708,14.956 69.181,18.262" style="fill:white;"/>
    </g>
    <g transform="matrix(0.717949,0,0,0.717949,0,0)">
        <path d="M102.299,11.563C103.516,13.028 104.119,14.915 103.98,16.822C103.98,17.329 103.967,17.716 103.941,17.983L103.15,27.662C103.141,27.994 103.066,28.32 102.93,28.623C102.795,28.925 102.6,29.197 102.359,29.422C101.853,29.859 101.204,30.088 100.539,30.062C100.215,30.082 99.89,30.036 99.584,29.926C99.278,29.816 98.998,29.644 98.759,29.422C98.543,29.189 98.381,28.91 98.285,28.605C98.189,28.301 98.162,27.978 98.205,27.662L98.996,18.183C99.207,15.223 98.046,13.742 95.515,13.742C94.888,13.707 94.26,13.806 93.674,14.034C93.087,14.261 92.555,14.612 92.113,15.063C91.236,16.089 90.733,17.387 90.689,18.742L89.937,27.662C89.928,27.994 89.854,28.32 89.718,28.623C89.582,28.925 89.388,29.197 89.146,29.422C88.641,29.859 87.991,30.088 87.326,30.062C87.005,30.084 86.683,30.038 86.38,29.928C86.077,29.817 85.8,29.645 85.566,29.422C85.355,29.185 85.194,28.906 85.096,28.603C84.997,28.3 84.962,27.979 84.992,27.662L86.259,12.143C86.26,11.824 86.332,11.51 86.469,11.223C86.605,10.935 86.804,10.683 87.049,10.483C87.577,10.061 88.236,9.841 88.909,9.863C89.211,9.844 89.514,9.888 89.8,9.991C90.085,10.094 90.347,10.254 90.57,10.462C90.769,10.672 90.916,10.926 90.998,11.205C91.081,11.483 91.097,11.777 91.045,12.063L91.005,12.822C91.677,11.852 92.592,11.08 93.655,10.583C94.82,10.037 96.091,9.764 97.374,9.783C98.272,9.718 99.174,9.843 100.022,10.15C100.87,10.456 101.645,10.937 102.299,11.563" style="fill:white;"/>
    </g>
    <g transform="matrix(0.717949,0,0,0.717949,0,0)">
        <path d="M36.735,11.313C35.991,10.154 34.852,9.311 33.535,8.943C32.217,8.576 30.812,8.709 29.586,9.318C28.555,9.847 27.715,10.69 27.185,11.729C26.654,12.767 26.46,13.947 26.63,15.103C26.801,16.259 27.326,17.331 28.132,18.169C28.938,19.006 29.984,19.565 31.123,19.768C31.025,22.9 29.716,25.868 27.478,28.036C25.24,30.204 22.251,31.398 19.152,31.363C16.053,31.327 13.091,30.065 10.902,27.847C8.713,25.629 7.471,22.631 7.443,19.498C7.438,17.082 8.166,14.722 9.529,12.738C10.893,10.754 12.826,9.24 15.067,8.403C15.493,8.247 15.849,7.939 16.068,7.537C16.286,7.136 16.353,6.667 16.255,6.22L16.242,6.16C16.188,5.919 16.182,5.67 16.224,5.427C16.265,5.183 16.354,4.951 16.485,4.742C16.615,4.533 16.785,4.353 16.985,4.211C17.185,4.068 17.41,3.967 17.648,3.913C17.73,3.895 17.813,3.882 17.896,3.874C18.357,3.831 18.82,3.81 19.286,3.81C19.862,3.81 20.438,3.842 21.011,3.905C21.257,3.933 21.506,3.91 21.744,3.84C21.981,3.77 22.203,3.654 22.396,3.497C22.589,3.34 22.75,3.146 22.869,2.927C22.988,2.707 23.063,2.466 23.09,2.217C23.094,2.183 23.097,2.148 23.098,2.114C23.112,1.614 22.936,1.128 22.606,0.755C22.276,0.382 21.817,0.151 21.325,0.109C17.445,-0.308 13.532,0.475 10.101,2.353C6.671,4.232 3.884,7.118 2.11,10.632C0.336,14.145 -0.343,18.119 0.163,22.031C0.669,25.942 2.337,29.606 4.946,32.539C7.555,35.472 10.982,37.536 14.775,38.459C18.568,39.382 22.549,39.12 26.191,37.707C29.834,36.295 32.968,33.798 35.178,30.548C37.388,27.297 38.571,23.445 38.572,19.501C38.572,17.594 38.192,13.484 36.735,11.313" style="fill:white;"/>
    </g>
    <g transform="matrix(0.717949,0,0,0.717949,0,0)">
        <path d="M26.56,1.482C26.955,1.482 27.342,1.6 27.67,1.822C27.999,2.044 28.255,2.36 28.406,2.729C28.557,3.098 28.597,3.504 28.52,3.896C28.443,4.288 28.252,4.648 27.973,4.93C27.694,5.213 27.337,5.405 26.95,5.483C26.562,5.561 26.161,5.521 25.796,5.368C25.431,5.215 25.119,4.956 24.899,4.624C24.68,4.292 24.563,3.901 24.563,3.502C24.563,2.966 24.773,2.452 25.148,2.073C25.522,1.695 26.03,1.482 26.56,1.482" style="fill:white;"/>
    </g>
</svg>
